<svg version="1.1" id="Layer_1" xmlns="http://www.w3.org/2000/svg" xmlns:xlink="http://www.w3.org/1999/xlink" x="0px" y="0px"
	 width="100%" viewBox="0 0 1250 1250" enable-background="new 0 0 1250 1250" xml:space="preserve">
<path fill="#FFFFFF" opacity="1.000000" stroke="none" 
	d="
M664.000000,1251.000000 
	C442.666656,1251.000000 221.833328,1251.000000 1.000000,1251.000000 
	C1.000000,834.333313 1.000000,417.666656 1.000000,1.000000 
	C417.666656,1.000000 834.333313,1.000000 1251.000000,1.000000 
	C1251.000000,417.666656 1251.000000,834.333313 1251.000000,1251.000000 
	C1055.500000,1251.000000 860.000000,1251.000000 664.000000,1251.000000 
M912.906372,121.605515 
	C867.645081,101.257851 820.243896,90.826805 770.577820,90.833038 
	C670.083313,90.845642 569.587280,90.551270 469.095673,91.087074 
	C449.890106,91.189468 430.453979,93.170578 411.549133,96.616165 
	C336.290924,110.332710 272.130493,145.300827 220.053604,201.309555 
	C158.624237,267.376953 126.870697,345.977539 126.174706,436.233521 
	C125.407524,535.722168 125.823074,635.221863 126.170486,734.715210 
	C126.229576,751.635986 127.515923,768.699036 129.977814,785.440063 
	C141.653549,864.835693 176.950760,932.425476 235.221176,987.330444 
	C302.801331,1051.007568 383.859406,1082.376587 476.612244,1082.753662 
	C573.438660,1083.147217 670.269531,1083.134644 767.094666,1082.606201 
	C787.647949,1082.494019 808.445435,1080.891479 828.683350,1077.390869 
	C907.837463,1063.699829 974.761108,1026.836792 1028.386719,967.019409 
	C1086.974121,901.667358 1117.078979,824.617310 1117.683472,736.820190 
	C1118.368652,637.330322 1117.818237,537.832153 1117.858521,438.337616 
	C1117.868164,414.773804 1115.860840,391.360992 1110.637451,368.428802 
	C1084.704712,254.575104 1018.840820,172.465134 912.906372,121.605515 
z"/>
<path fill="#0068FF" opacity="1.000000" stroke="none" 
	d="
M913.247803,121.767426 
	C1018.840820,172.465134 1084.704712,254.575104 1110.637451,368.428802 
	C1115.860840,391.360992 1117.868164,414.773804 1117.858521,438.337616 
	C1117.818237,537.832153 1118.368652,637.330322 1117.683472,736.820190 
	C1117.078979,824.617310 1086.974121,901.667358 1028.386719,967.019409 
	C974.761108,1026.836792 907.837463,1063.699829 828.683350,1077.390869 
	C808.445435,1080.891479 787.647949,1082.494019 767.094666,1082.606201 
	C670.269531,1083.134644 573.438660,1083.147217 476.612244,1082.753662 
	C383.859406,1082.376587 302.801331,1051.007568 235.221176,987.330444 
	C176.950760,932.425476 141.653549,864.835693 129.977814,785.440063 
	C127.515923,768.699036 126.229576,751.635986 126.170486,734.715210 
	C125.823074,635.221863 125.407524,535.722168 126.174706,436.233521 
	C126.870697,345.977539 158.624237,267.376953 220.053604,201.309555 
	C272.130493,145.300827 336.290924,110.332710 411.549133,96.616165 
	C430.453979,93.170578 449.890106,91.189468 469.095673,91.087074 
	C569.587280,90.551270 670.083313,90.845642 770.577820,90.833038 
	C820.243896,90.826805 867.645081,101.257851 913.247803,121.767426 
M558.721375,693.093811 
	C591.853210,686.922241 625.131287,685.633118 658.615112,689.830688 
	C713.233826,696.677795 763.049133,715.894714 807.239990,748.705750 
	C823.341492,760.660828 838.053650,774.487183 853.119995,787.223450 
	C877.564941,762.778381 902.739929,737.603149 927.927124,712.415771 
	C767.366333,538.680969 481.217010,534.928162 315.926056,706.983215 
	C341.102325,732.160278 366.269257,757.328003 390.903229,781.962708 
	C404.440948,770.774597 417.798187,758.703369 432.196228,748.037048 
	C469.815155,720.168457 512.058838,702.505188 558.721375,693.093811 
M661.405762,503.948151 
	C724.775452,482.750244 761.532959,422.984375 751.054626,357.247528 
	C739.781677,286.525940 671.221191,235.001114 595.642151,250.637772 
	C524.616211,265.332428 480.615173,331.531281 493.050903,402.959076 
	C506.326691,479.211914 586.872437,527.836243 661.405762,503.948151 
M564.015686,803.442810 
	C526.778870,813.675476 494.659088,832.553101 467.555084,860.072632 
	C550.543701,950.132812 695.910950,948.280823 776.043030,864.033936 
	C775.776062,863.643860 775.549805,863.195740 775.219055,862.846680 
	C753.477844,839.904297 728.018433,822.419922 698.544128,810.926025 
	C654.815552,793.873718 610.199402,791.581360 564.015686,803.442810 
M388.643951,571.842773 
	C394.275696,571.394592 400.044983,571.580261 405.516388,570.393066 
	C435.834473,563.814392 456.328674,545.639771 464.480743,515.784546 
	C472.551788,486.226196 465.060089,459.659149 442.138855,439.047119 
	C419.112976,418.341003 391.921204,413.404999 363.076019,424.764099 
	C334.597107,435.979034 318.133331,457.892334 315.293335,488.295471 
	C311.140076,532.758057 342.957367,568.744629 388.643951,571.842773 
M797.945251,442.447540 
	C768.818726,472.849854 769.333679,520.702942 799.101868,549.933350 
	C829.456909,579.739990 877.697327,579.122009 907.632568,548.543091 
	C936.578247,518.974976 936.115845,470.852020 906.603333,441.433777 
	C876.689270,411.615234 828.625366,411.843445 797.945251,442.447540 
z"/>
<path fill="#FEFFFF" opacity="1.000000" stroke="none" 
	d="
M558.298950,693.164734 
	C512.058838,702.505188 469.815155,720.168457 432.196228,748.037048 
	C417.798187,758.703369 404.440948,770.774597 390.903229,781.962708 
	C366.269257,757.328003 341.102325,732.160278 315.926056,706.983215 
	C481.217010,534.928162 767.366333,538.680969 927.927124,712.415771 
	C902.739929,737.603149 877.564941,762.778381 853.119995,787.223450 
	C838.053650,774.487183 823.341492,760.660828 807.239990,748.705750 
	C763.049133,715.894714 713.233826,696.677795 658.615112,689.830688 
	C625.131287,685.633118 591.853210,686.922241 558.298950,693.164734 
z"/>
<path fill="#FEFFFF" opacity="1.000000" stroke="none" 
	d="
M661.013550,504.033569 
	C586.872437,527.836243 506.326691,479.211914 493.050903,402.959076 
	C480.615173,331.531281 524.616211,265.332428 595.642151,250.637772 
	C671.221191,235.001114 739.781677,286.525940 751.054626,357.247528 
	C761.532959,422.984375 724.775452,482.750244 661.013550,504.033569 
z"/>
<path fill="#FEFEFF" opacity="1.000000" stroke="none" 
	d="
M564.405273,803.310730 
	C610.199402,791.581360 654.815552,793.873718 698.544128,810.926025 
	C728.018433,822.419922 753.477844,839.904297 775.219055,862.846680 
	C775.549805,863.195740 775.776062,863.643860 776.043030,864.033936 
	C695.910950,948.280823 550.543701,950.132812 467.555084,860.072632 
	C494.659088,832.553101 526.778870,813.675476 564.405273,803.310730 
z"/>
<path fill="#FEFEFF" opacity="1.000000" stroke="none" 
	d="
M388.174316,571.842285 
	C342.957367,568.744629 311.140076,532.758057 315.293335,488.295471 
	C318.133331,457.892334 334.597107,435.979034 363.076019,424.764099 
	C391.921204,413.404999 419.112976,418.341003 442.138855,439.047119 
	C465.060089,459.659149 472.551788,486.226196 464.480743,515.784546 
	C456.328674,545.639771 435.834473,563.814392 405.516388,570.393066 
	C400.044983,571.580261 394.275696,571.394592 388.174316,571.842285 
z"/>
<path fill="#FEFEFF" opacity="1.000000" stroke="none" 
	d="
M798.195007,442.197418 
	C828.625366,411.843445 876.689270,411.615234 906.603333,441.433777 
	C936.115845,470.852020 936.578247,518.974976 907.632568,548.543091 
	C877.697327,579.122009 829.456909,579.739990 799.101868,549.933350 
	C769.333679,520.702942 768.818726,472.849854 798.195007,442.197418 
z"/>
</svg>