<svg version="1.1" id="Layer_1" xmlns="http://www.w3.org/2000/svg" xmlns:xlink="http://www.w3.org/1999/xlink" x="0px" y="0px"
	 width="100%" viewBox="0 0 3606 1454" enable-background="new 0 0 3606 1454" xml:space="preserve">
<path fill="#FFFFFF" opacity="1.000000" stroke="none" 
	d="
M2176.000000,1456.000000 
	C1450.666626,1456.000000 726.333313,1456.000000 2.000000,1456.000000 
	C2.000000,971.333313 2.000000,486.666656 2.000000,2.000000 
	C1204.000000,2.000000 2406.000000,2.000000 3608.000000,2.000000 
	C3608.000000,486.666656 3608.000000,971.333313 3608.000000,1456.000000 
	C3131.000000,1456.000000 2654.000000,1456.000000 2176.000000,1456.000000 
M1120.165039,813.000000 
	C1120.165039,722.353455 1120.092773,631.706848 1120.216064,541.060486 
	C1120.246582,518.632263 1117.863281,496.471069 1113.349365,474.589722 
	C1079.859253,312.243378 937.150696,196.181427 771.216553,196.156265 
	C673.572144,196.141449 575.927795,196.190689 478.283386,196.130371 
	C449.832428,196.112808 421.788330,199.386688 394.173035,206.126602 
	C243.243866,242.963074 129.297272,378.221985 128.419754,543.368347 
	C127.892082,642.676270 128.264389,741.989258 128.367310,841.299805 
	C128.390488,863.661804 130.732513,885.843201 135.181305,907.778442 
	C149.501358,978.384644 182.215790,1039.140747 233.988785,1089.181152 
	C299.593628,1152.590576 378.359131,1186.452881 469.609924,1187.708496 
	C569.901123,1189.088623 670.225586,1188.359619 770.533203,1187.958252 
	C790.109619,1187.879883 809.928833,1186.581421 829.201782,1183.297485 
	C912.447449,1169.113037 981.963806,1129.800781 1036.959106,1065.684570 
	C1080.052246,1015.444275 1106.306519,957.292603 1116.478149,891.760376 
	C1120.440430,866.231873 1120.106323,840.640503 1120.165039,813.000000 
M2923.419922,886.999878 
	C2923.419922,914.228943 2923.419922,941.457947 2923.419922,969.555298 
	C2951.297607,969.634155 2978.036377,970.078003 3005.384521,969.278198 
	C3003.607178,855.695435 3001.847412,743.253235 3000.093994,631.199463 
	C3006.475342,628.725098 3008.128418,632.923889 3010.262695,636.213684 
	C3020.779785,652.424072 3031.275635,668.648438 3041.773682,684.871216 
	C3101.501709,777.171631 3161.276123,869.442200 3220.837646,961.850037 
	C3224.466797,967.480652 3228.159668,969.987976 3235.123779,969.873657 
	C3262.447754,969.424988 3289.783203,969.708496 3317.114502,969.662415 
	C3319.949951,969.657654 3322.785156,969.269226 3325.457764,969.070923 
	C3327.659424,939.529602 3326.578613,538.122864 3324.399170,530.783936 
	C3297.842529,530.783936 3271.330078,530.783936 3244.834961,530.783936 
	C3244.834961,549.343079 3244.705078,567.267944 3244.870850,585.190002 
	C3245.040039,603.512756 3245.534180,621.832397 3245.821777,640.154419 
	C3246.104004,658.147522 3246.250977,676.142883 3246.558105,694.135559 
	C3246.864502,712.122437 3247.361328,730.106201 3247.653320,748.093323 
	C3247.950928,766.419861 3248.243896,784.748596 3248.273682,803.076782 
	C3248.302490,820.824951 3249.573730,838.596924 3248.901123,856.378357 
	C3241.125977,857.262817 3240.250732,851.491333 3237.978027,847.968018 
	C3171.886475,745.496948 3105.916260,642.947388 3039.921631,540.413757 
	C3037.766113,537.065125 3035.555908,533.751831 3033.562012,530.712769 
	C2996.812012,530.712769 2960.603271,530.712769 2923.419678,530.712769 
	C2923.419678,649.182922 2923.419678,767.091370 2923.419922,886.999878 
M2290.773193,925.715637 
	C2305.652832,904.090393 2313.630615,879.459534 2320.806396,854.252563 
	C2324.534668,854.518127 2327.388916,854.721436 2331.152832,854.989502 
	C2329.450684,893.325012 2327.775879,931.046936 2326.085938,969.111694 
	C2347.094971,969.111694 2366.900635,969.111694 2387.042480,969.111694 
	C2387.042480,894.414795 2387.042480,820.301270 2387.042480,745.987793 
	C2329.553467,745.987793 2272.709717,745.987793 2215.438965,745.987793 
	C2215.438965,766.738831 2215.438965,786.916626 2215.438965,808.190613 
	C2245.127197,808.190613 2274.274902,808.190613 2304.537598,808.190613 
	C2302.827881,817.922302 2301.866699,826.536560 2299.758301,834.860107 
	C2289.704346,874.551086 2265.329590,899.778992 2224.190186,906.068726 
	C2209.519531,908.311768 2194.215820,908.886108 2179.449707,907.525391 
	C2147.424072,904.574219 2120.825439,890.689270 2102.345459,863.426514 
	C2092.311768,848.624634 2086.011475,832.172668 2082.082031,814.843628 
	C2073.650146,777.659790 2073.793457,740.126648 2078.763672,702.571289 
	C2081.308838,683.337708 2086.749023,664.812256 2096.003418,647.577271 
	C2107.079834,626.948975 2122.590088,610.837463 2144.492676,601.932617 
	C2178.396729,588.148254 2212.760498,587.305176 2246.539307,601.848694 
	C2275.340088,614.248901 2292.282227,636.464417 2296.297607,667.974670 
	C2296.735352,671.408630 2297.364990,674.818115 2297.991211,678.780457 
	C2325.427490,670.515686 2351.447998,662.677551 2377.495605,654.831238 
	C2375.889404,630.792847 2369.670410,609.313538 2356.952637,589.914490 
	C2337.583740,560.370361 2309.550293,542.688232 2276.570312,532.289551 
	C2239.391113,520.566772 2201.224365,519.087952 2162.836426,523.843872 
	C2082.811279,533.758484 2028.753174,576.506348 2001.805176,652.835083 
	C1992.296997,679.766541 1988.182617,707.732849 1986.991211,736.124207 
	C1985.261841,777.336853 1988.114258,818.141479 2002.172607,857.304260 
	C2021.751587,911.846008 2057.309570,950.934143 2113.588867,968.996521 
	C2143.927734,978.733521 2174.985352,980.505920 2206.437012,976.109802 
	C2241.060303,971.270508 2269.573486,955.952698 2290.773193,925.715637 
M2821.174316,608.011047 
	C2808.770752,581.800415 2788.273926,563.988708 2762.440430,551.910400 
	C2728.595215,536.086365 2692.488770,530.577148 2655.579834,530.270996 
	C2599.270508,529.803833 2542.954590,530.140259 2486.641357,530.174255 
	C2484.083984,530.175781 2481.526855,530.558594 2478.726074,530.783386 
	C2478.726074,677.171326 2478.726074,822.932129 2478.726074,968.977539 
	C2506.727539,968.977539 2534.151611,968.977539 2562.171143,968.977539 
	C2562.171143,955.304016 2562.171387,942.335754 2562.171387,929.367432 
	C2562.171387,916.372070 2562.171387,903.376770 2562.171387,890.381409 
	C2562.171387,877.386047 2562.129395,864.390503 2562.183105,851.395386 
	C2562.235840,838.557007 2561.939941,825.700806 2562.406982,812.333984 
	C2580.362305,812.333984 2596.991455,812.118835 2613.612305,812.396301 
	C2629.253174,812.657410 2644.958984,812.666931 2660.506104,814.151001 
	C2692.599365,817.214478 2715.082031,833.675232 2726.347412,864.371643 
	C2728.407471,869.985229 2730.353516,875.681885 2731.775146,881.481689 
	C2738.113525,907.339661 2744.222168,933.253845 2750.470703,959.133972 
	C2751.305176,962.589294 2752.462402,965.966675 2753.410156,969.177124 
	C2784.473145,969.177124 2814.646973,969.177124 2845.408447,969.177124 
	C2844.853760,966.667114 2844.534668,964.726074 2843.993652,962.848938 
	C2834.688965,930.557007 2825.809326,898.131897 2815.812744,866.055237 
	C2811.681396,852.798584 2805.929443,839.882202 2799.506836,827.543823 
	C2790.288086,809.833130 2775.891602,796.862427 2757.180908,789.733398 
	C2746.066895,785.498901 2734.290039,782.937134 2722.714111,780.007690 
	C2716.146240,778.345520 2715.954102,778.472107 2718.453613,770.551086 
	C2737.855957,767.436646 2756.913330,762.908020 2774.752930,754.213074 
	C2804.192871,739.864136 2823.142822,717.004761 2829.485107,684.715027 
	C2834.539062,658.983643 2832.521240,633.660278 2821.174316,608.011047 
M1691.495117,975.708313 
	C1721.409790,978.915894 1751.336426,979.314514 1781.272705,976.032349 
	C1806.251343,973.293823 1830.512207,967.799377 1853.310547,956.881775 
	C1895.582031,936.638977 1920.129395,903.860413 1923.016235,856.466248 
	C1924.768188,827.701233 1919.114380,800.763062 1900.026123,777.897949 
	C1889.611084,765.422302 1876.912109,755.937927 1862.619385,748.365662 
	C1839.490234,736.111816 1814.743408,728.408264 1789.520874,721.997742 
	C1758.561523,714.129028 1727.562500,706.412415 1696.652100,698.356384 
	C1684.001831,695.059509 1672.247192,689.498535 1661.493408,682.001770 
	C1653.092773,676.145386 1646.343384,668.903687 1643.708374,658.669495 
	C1638.562378,638.681946 1643.791992,621.795654 1659.383423,608.290466 
	C1667.304199,601.429504 1676.639038,597.016907 1686.593506,593.936829 
	C1711.670776,586.177307 1737.244263,585.628601 1762.700439,590.719055 
	C1805.972046,599.371948 1828.750610,627.582214 1830.767456,666.677246 
	C1830.894531,669.143677 1831.586182,671.581055 1832.124878,674.658936 
	C1857.909424,667.460632 1882.769775,660.520325 1907.958618,653.488342 
	C1907.640991,641.536316 1905.943848,630.742004 1902.864136,620.182617 
	C1892.205566,583.636841 1868.275513,558.550171 1834.653076,542.126343 
	C1812.257568,531.186584 1788.356079,525.467957 1763.626221,523.172180 
	C1728.883789,519.946960 1694.265869,520.539734 1660.623535,530.671143 
	C1647.031616,534.764282 1633.548340,540.352173 1621.252197,547.413330 
	C1572.570801,575.369141 1556.658813,620.612427 1562.953003,672.124329 
	C1566.576172,701.776306 1582.522583,724.042603 1606.269897,741.106384 
	C1612.732178,745.749817 1619.779663,749.655029 1626.825562,753.396057 
	C1651.775146,766.643188 1679.019287,773.155029 1706.128540,780.059265 
	C1734.500122,787.285095 1762.902222,794.408936 1791.151245,802.091003 
	C1804.069580,805.604004 1816.076538,811.524841 1826.612305,819.991333 
	C1839.562256,830.397705 1843.798950,844.070312 1840.986572,860.115051 
	C1838.685913,873.240662 1831.820190,883.876526 1820.992554,891.251038 
	C1813.373413,896.440369 1804.968628,900.916199 1796.315430,904.063232 
	C1772.035156,912.893555 1746.724731,913.360840 1721.325439,911.066833 
	C1705.663452,909.652283 1690.346313,906.304138 1676.010132,899.638062 
	C1649.577881,887.347595 1633.628296,867.025330 1629.708618,837.806458 
	C1628.886597,831.677734 1628.244385,825.524841 1627.421143,818.550537 
	C1602.529907,825.892822 1578.368408,833.019836 1554.199097,840.149231 
	C1553.243164,854.489563 1555.568726,867.570312 1559.278076,880.377991 
	C1571.468994,922.472107 1600.060181,949.159302 1640.346802,963.488159 
	C1656.220459,969.133972 1673.227173,971.593750 1691.495117,975.708313 
M1407.046021,530.155090 
	C1400.145386,530.155090 1393.244629,530.155090 1386.558228,530.155090 
	C1384.334351,544.596252 1385.055420,962.301025 1387.141968,969.105164 
	C1414.639526,969.105164 1442.137817,969.105164 1469.539307,969.105164 
	C1471.664551,955.292786 1470.938232,537.489746 1468.694580,530.155212 
	C1448.926880,530.155212 1428.981567,530.155212 1407.046021,530.155090 
z"/>
<path fill="#0168FF" opacity="1.000000" stroke="none" 
	d="
M1120.165039,814.000000 
	C1120.106323,840.640503 1120.440430,866.231873 1116.478149,891.760376 
	C1106.306519,957.292603 1080.052246,1015.444275 1036.959106,1065.684570 
	C981.963806,1129.800781 912.447449,1169.113037 829.201782,1183.297485 
	C809.928833,1186.581421 790.109619,1187.879883 770.533203,1187.958252 
	C670.225586,1188.359619 569.901123,1189.088623 469.609924,1187.708496 
	C378.359131,1186.452881 299.593628,1152.590576 233.988785,1089.181152 
	C182.215790,1039.140747 149.501358,978.384644 135.181305,907.778442 
	C130.732513,885.843201 128.390488,863.661804 128.367310,841.299805 
	C128.264389,741.989258 127.892082,642.676270 128.419754,543.368347 
	C129.297272,378.221985 243.243866,242.963074 394.173035,206.126602 
	C421.788330,199.386688 449.832428,196.112808 478.283386,196.130371 
	C575.927795,196.190689 673.572144,196.141449 771.216553,196.156265 
	C937.150696,196.181427 1079.859253,312.243378 1113.349365,474.589722 
	C1117.863281,496.471069 1120.246582,518.632263 1120.216064,541.060486 
	C1120.092773,631.706848 1120.165039,722.353455 1120.165039,814.000000 
M414.383820,869.355835 
	C486.896942,809.079712 570.050476,784.240479 663.579041,795.855408 
	C733.648987,804.557129 793.863770,834.485779 844.618713,883.513550 
	C848.115051,886.890808 851.571472,890.309387 854.059937,892.743713 
	C879.566650,867.192139 904.427002,842.288086 929.314392,817.356934 
	C761.143494,634.820129 466.834015,649.864990 319.365631,813.122620 
	C343.672882,838.562317 367.956970,863.977783 392.347229,889.504333 
	C400.574005,881.952515 406.936432,876.112000 414.383820,869.355835 
M624.925110,615.674194 
	C629.896851,615.255188 634.884338,614.971558 639.838013,614.396729 
	C711.751038,606.052368 762.511536,541.077881 754.597900,469.222321 
	C747.602173,405.700958 689.480896,344.036011 607.426025,354.640747 
	C516.647095,366.372986 467.534882,462.150696 506.951141,542.058350 
	C530.323853,589.441345 570.427979,613.131470 624.925110,615.674194 
M684.149780,1025.280396 
	C720.288940,1014.907043 751.858582,996.861084 778.483887,970.164551 
	C692.193726,873.648315 540.237366,885.513062 470.528259,967.230774 
	C478.007294,973.795105 485.139191,980.838135 493.044159,986.867615 
	C549.929993,1030.256470 613.298889,1042.506348 684.149780,1025.280396 
M863.684998,676.809143 
	C910.234558,671.789062 937.780029,627.386841 930.435608,587.849976 
	C922.488159,545.066956 880.979553,516.973389 838.293579,526.534851 
	C796.318970,535.937073 770.249451,579.203430 781.556091,620.699341 
	C791.418823,656.895935 823.117065,679.134033 863.684998,676.809143 
M425.186859,670.473633 
	C459.314880,653.597900 475.989746,619.764343 467.943481,583.719788 
	C458.883301,543.133362 417.329224,517.204895 376.384125,526.589661 
	C335.536499,535.952087 309.759064,577.578064 319.192078,618.141418 
	C329.653137,663.125549 378.266418,690.299561 425.186859,670.473633 
z"/>
<path fill="#0269FF" opacity="1.000000" stroke="none" 
	d="
M2923.419922,885.999878 
	C2923.419678,767.091370 2923.419678,649.182922 2923.419678,530.712769 
	C2960.603271,530.712769 2996.812012,530.712769 3033.562012,530.712769 
	C3035.555908,533.751831 3037.766113,537.065125 3039.921631,540.413757 
	C3105.916260,642.947388 3171.886475,745.496948 3237.978027,847.968018 
	C3240.250732,851.491333 3241.125977,857.262817 3248.901123,856.378357 
	C3249.573730,838.596924 3248.302490,820.824951 3248.273682,803.076782 
	C3248.243896,784.748596 3247.950928,766.419861 3247.653320,748.093323 
	C3247.361328,730.106201 3246.864502,712.122437 3246.558105,694.135559 
	C3246.250977,676.142883 3246.104004,658.147522 3245.821777,640.154419 
	C3245.534180,621.832397 3245.040039,603.512756 3244.870850,585.190002 
	C3244.705078,567.267944 3244.834961,549.343079 3244.834961,530.783936 
	C3271.330078,530.783936 3297.842529,530.783936 3324.399170,530.783936 
	C3326.578613,538.122864 3327.659424,939.529602 3325.457764,969.070923 
	C3322.785156,969.269226 3319.949951,969.657654 3317.114502,969.662415 
	C3289.783203,969.708496 3262.447754,969.424988 3235.123779,969.873657 
	C3228.159668,969.987976 3224.466797,967.480652 3220.837646,961.850037 
	C3161.276123,869.442200 3101.501709,777.171631 3041.773682,684.871216 
	C3031.275635,668.648438 3020.779785,652.424072 3010.262695,636.213684 
	C3008.128418,632.923889 3006.475342,628.725098 3000.093994,631.199463 
	C3001.847412,743.253235 3003.607178,855.695435 3005.384521,969.278198 
	C2978.036377,970.078003 2951.297607,969.634155 2923.419922,969.555298 
	C2923.419922,941.457947 2923.419922,914.228943 2923.419922,885.999878 
z"/>
<path fill="#0269FF" opacity="1.000000" stroke="none" 
	d="
M2290.371582,926.311584 
	C2269.573486,955.952698 2241.060303,971.270508 2206.437012,976.109802 
	C2174.985352,980.505920 2143.927734,978.733521 2113.588867,968.996521 
	C2057.309570,950.934143 2021.751587,911.846008 2002.172607,857.304260 
	C1988.114258,818.141479 1985.261841,777.336853 1986.991211,736.124207 
	C1988.182617,707.732849 1992.296997,679.766541 2001.805176,652.835083 
	C2028.753174,576.506348 2082.811279,533.758484 2162.836426,523.843872 
	C2201.224365,519.087952 2239.391113,520.566772 2276.570312,532.289551 
	C2309.550293,542.688232 2337.583740,560.370361 2356.952637,589.914490 
	C2369.670410,609.313538 2375.889404,630.792847 2377.495605,654.831238 
	C2351.447998,662.677551 2325.427490,670.515686 2297.991211,678.780457 
	C2297.364990,674.818115 2296.735352,671.408630 2296.297607,667.974670 
	C2292.282227,636.464417 2275.340088,614.248901 2246.539307,601.848694 
	C2212.760498,587.305176 2178.396729,588.148254 2144.492676,601.932617 
	C2122.590088,610.837463 2107.079834,626.948975 2096.003418,647.577271 
	C2086.749023,664.812256 2081.308838,683.337708 2078.763672,702.571289 
	C2073.793457,740.126648 2073.650146,777.659790 2082.082031,814.843628 
	C2086.011475,832.172668 2092.311768,848.624634 2102.345459,863.426514 
	C2120.825439,890.689270 2147.424072,904.574219 2179.449707,907.525391 
	C2194.215820,908.886108 2209.519531,908.311768 2224.190186,906.068726 
	C2265.329590,899.778992 2289.704346,874.551086 2299.758301,834.860107 
	C2301.866699,826.536560 2302.827881,817.922302 2304.537598,808.190613 
	C2274.274902,808.190613 2245.127197,808.190613 2215.438965,808.190613 
	C2215.438965,786.916626 2215.438965,766.738831 2215.438965,745.987793 
	C2272.709717,745.987793 2329.553467,745.987793 2387.042480,745.987793 
	C2387.042480,820.301270 2387.042480,894.414795 2387.042480,969.111694 
	C2366.900635,969.111694 2347.094971,969.111694 2326.085938,969.111694 
	C2327.775879,931.046936 2329.450684,893.325012 2331.152832,854.989502 
	C2327.388916,854.721436 2324.534668,854.518127 2320.806396,854.252563 
	C2313.630615,879.459534 2305.652832,904.090393 2290.371582,926.311584 
z"/>
<path fill="#0269FF" opacity="1.000000" stroke="none" 
	d="
M2821.499512,608.693481 
	C2832.521240,633.660278 2834.539062,658.983643 2829.485107,684.715027 
	C2823.142822,717.004761 2804.192871,739.864136 2774.752930,754.213074 
	C2756.913330,762.908020 2737.855957,767.436646 2718.453613,770.551086 
	C2715.954102,778.472107 2716.146240,778.345520 2722.714111,780.007690 
	C2734.290039,782.937134 2746.066895,785.498901 2757.180908,789.733398 
	C2775.891602,796.862427 2790.288086,809.833130 2799.506836,827.543823 
	C2805.929443,839.882202 2811.681396,852.798584 2815.812744,866.055237 
	C2825.809326,898.131897 2834.688965,930.557007 2843.993652,962.848938 
	C2844.534668,964.726074 2844.853760,966.667114 2845.408447,969.177124 
	C2814.646973,969.177124 2784.473145,969.177124 2753.410156,969.177124 
	C2752.462402,965.966675 2751.305176,962.589294 2750.470703,959.133972 
	C2744.222168,933.253845 2738.113525,907.339661 2731.775146,881.481689 
	C2730.353516,875.681885 2728.407471,869.985229 2726.347412,864.371643 
	C2715.082031,833.675232 2692.599365,817.214478 2660.506104,814.151001 
	C2644.958984,812.666931 2629.253174,812.657410 2613.612305,812.396301 
	C2596.991455,812.118835 2580.362305,812.333984 2562.406982,812.333984 
	C2561.939941,825.700806 2562.235840,838.557007 2562.183105,851.395386 
	C2562.129395,864.390503 2562.171387,877.386047 2562.171387,890.381409 
	C2562.171387,903.376770 2562.171387,916.372070 2562.171387,929.367432 
	C2562.171387,942.335754 2562.171143,955.304016 2562.171143,968.977539 
	C2534.151611,968.977539 2506.727539,968.977539 2478.726074,968.977539 
	C2478.726074,822.932129 2478.726074,677.171326 2478.726074,530.783386 
	C2481.526855,530.558594 2484.083984,530.175781 2486.641357,530.174255 
	C2542.954590,530.140259 2599.270508,529.803833 2655.579834,530.270996 
	C2692.488770,530.577148 2728.595215,536.086365 2762.440430,551.910400 
	C2788.273926,563.988708 2808.770752,581.800415 2821.499512,608.693481 
M2661.874512,597.005920 
	C2659.553711,596.795105 2657.233398,596.408264 2654.912109,596.400269 
	C2625.600586,596.299561 2596.289307,596.246094 2566.977783,596.218689 
	C2565.719727,596.217529 2564.461182,596.586304 2563.345215,596.760437 
	C2561.345459,608.242249 2561.753662,740.175476 2563.784912,747.450439 
	C2595.008057,747.450439 2626.298096,748.001160 2657.555176,747.227478 
	C2674.188965,746.815735 2690.580566,743.416992 2705.924805,736.215942 
	C2725.986084,726.801392 2739.188477,711.768677 2742.567871,689.631165 
	C2744.108643,679.538208 2744.608154,668.970276 2743.488281,658.849243 
	C2740.696533,633.617798 2727.271729,615.722412 2703.477783,606.016907 
	C2690.708984,600.808472 2677.368652,598.256958 2661.874512,597.005920 
z"/>
<path fill="#0269FF" opacity="1.000000" stroke="none" 
	d="
M1690.606567,975.606323 
	C1673.227173,971.593750 1656.220459,969.133972 1640.346802,963.488159 
	C1600.060181,949.159302 1571.468994,922.472107 1559.278076,880.377991 
	C1555.568726,867.570312 1553.243164,854.489563 1554.199097,840.149231 
	C1578.368408,833.019836 1602.529907,825.892822 1627.421143,818.550537 
	C1628.244385,825.524841 1628.886597,831.677734 1629.708618,837.806458 
	C1633.628296,867.025330 1649.577881,887.347595 1676.010132,899.638062 
	C1690.346313,906.304138 1705.663452,909.652283 1721.325439,911.066833 
	C1746.724731,913.360840 1772.035156,912.893555 1796.315430,904.063232 
	C1804.968628,900.916199 1813.373413,896.440369 1820.992554,891.251038 
	C1831.820190,883.876526 1838.685913,873.240662 1840.986572,860.115051 
	C1843.798950,844.070312 1839.562256,830.397705 1826.612305,819.991333 
	C1816.076538,811.524841 1804.069580,805.604004 1791.151245,802.091003 
	C1762.902222,794.408936 1734.500122,787.285095 1706.128540,780.059265 
	C1679.019287,773.155029 1651.775146,766.643188 1626.825562,753.396057 
	C1619.779663,749.655029 1612.732178,745.749817 1606.269897,741.106384 
	C1582.522583,724.042603 1566.576172,701.776306 1562.953003,672.124329 
	C1556.658813,620.612427 1572.570801,575.369141 1621.252197,547.413330 
	C1633.548340,540.352173 1647.031616,534.764282 1660.623535,530.671143 
	C1694.265869,520.539734 1728.883789,519.946960 1763.626221,523.172180 
	C1788.356079,525.467957 1812.257568,531.186584 1834.653076,542.126343 
	C1868.275513,558.550171 1892.205566,583.636841 1902.864136,620.182617 
	C1905.943848,630.742004 1907.640991,641.536316 1907.958618,653.488342 
	C1882.769775,660.520325 1857.909424,667.460632 1832.124878,674.658936 
	C1831.586182,671.581055 1830.894531,669.143677 1830.767456,666.677246 
	C1828.750610,627.582214 1805.972046,599.371948 1762.700439,590.719055 
	C1737.244263,585.628601 1711.670776,586.177307 1686.593506,593.936829 
	C1676.639038,597.016907 1667.304199,601.429504 1659.383423,608.290466 
	C1643.791992,621.795654 1638.562378,638.681946 1643.708374,658.669495 
	C1646.343384,668.903687 1653.092773,676.145386 1661.493408,682.001770 
	C1672.247192,689.498535 1684.001831,695.059509 1696.652100,698.356384 
	C1727.562500,706.412415 1758.561523,714.129028 1789.520874,721.997742 
	C1814.743408,728.408264 1839.490234,736.111816 1862.619385,748.365662 
	C1876.912109,755.937927 1889.611084,765.422302 1900.026123,777.897949 
	C1919.114380,800.763062 1924.768188,827.701233 1923.016235,856.466248 
	C1920.129395,903.860413 1895.582031,936.638977 1853.310547,956.881775 
	C1830.512207,967.799377 1806.251343,973.293823 1781.272705,976.032349 
	C1751.336426,979.314514 1721.409790,978.915894 1690.606567,975.606323 
z"/>
<path fill="#0168FF" opacity="1.000000" stroke="none" 
	d="
M1408.041016,530.155151 
	C1428.981567,530.155212 1448.926880,530.155212 1468.694580,530.155212 
	C1470.938232,537.489746 1471.664551,955.292786 1469.539307,969.105164 
	C1442.137817,969.105164 1414.639526,969.105164 1387.141968,969.105164 
	C1385.055420,962.301025 1384.334351,544.596252 1386.558228,530.155090 
	C1393.244629,530.155090 1400.145386,530.155090 1408.041016,530.155151 
z"/>
<path fill="#FEFEFF" opacity="1.000000" stroke="none" 
	d="
M413.841370,869.813721 
	C406.936432,876.112000 400.574005,881.952515 392.347229,889.504333 
	C367.956970,863.977783 343.672882,838.562317 319.365631,813.122620 
	C466.834015,649.864990 761.143494,634.820129 929.314392,817.356934 
	C904.427002,842.288086 879.566650,867.192139 854.059937,892.743713 
	C851.571472,890.309387 848.115051,886.890808 844.618713,883.513550 
	C793.863770,834.485779 733.648987,804.557129 663.579041,795.855408 
	C570.050476,784.240479 486.896942,809.079712 413.841370,869.813721 
z"/>
<path fill="#FEFEFF" opacity="1.000000" stroke="none" 
	d="
M624.006165,615.673584 
	C570.427979,613.131470 530.323853,589.441345 506.951141,542.058350 
	C467.534882,462.150696 516.647095,366.372986 607.426025,354.640747 
	C689.480896,344.036011 747.602173,405.700958 754.597900,469.222321 
	C762.511536,541.077881 711.751038,606.052368 639.838013,614.396729 
	C634.884338,614.971558 629.896851,615.255188 624.006165,615.673584 
z"/>
<path fill="#FDFEFF" opacity="1.000000" stroke="none" 
	d="
M683.360229,1025.497437 
	C613.298889,1042.506348 549.929993,1030.256470 493.044159,986.867615 
	C485.139191,980.838135 478.007294,973.795105 470.528259,967.230774 
	C540.237366,885.513062 692.193726,873.648315 778.483887,970.164551 
	C751.858582,996.861084 720.288940,1014.907043 683.360229,1025.497437 
z"/>
<path fill="#FDFEFF" opacity="1.000000" stroke="none" 
	d="
M862.827026,676.961304 
	C823.117065,679.134033 791.418823,656.895935 781.556091,620.699341 
	C770.249451,579.203430 796.318970,535.937073 838.293579,526.534851 
	C880.979553,516.973389 922.488159,545.066956 930.435608,587.849976 
	C937.780029,627.386841 910.234558,671.789062 862.827026,676.961304 
z"/>
<path fill="#FDFEFF" opacity="1.000000" stroke="none" 
	d="
M424.504272,670.824829 
	C378.266418,690.299561 329.653137,663.125549 319.192078,618.141418 
	C309.759064,577.578064 335.536499,535.952087 376.384125,526.589661 
	C417.329224,517.204895 458.883301,543.133362 467.943481,583.719788 
	C475.989746,619.764343 459.314880,653.597900 424.504272,670.824829 
z"/>
<path fill="#FDFEFF" opacity="1.000000" stroke="none" 
	d="
M2662.777100,597.133545 
	C2677.368652,598.256958 2690.708984,600.808472 2703.477783,606.016907 
	C2727.271729,615.722412 2740.696533,633.617798 2743.488281,658.849243 
	C2744.608154,668.970276 2744.108643,679.538208 2742.567871,689.631165 
	C2739.188477,711.768677 2725.986084,726.801392 2705.924805,736.215942 
	C2690.580566,743.416992 2674.188965,746.815735 2657.555176,747.227478 
	C2626.298096,748.001160 2595.008057,747.450439 2563.784912,747.450439 
	C2561.753662,740.175476 2561.345459,608.242249 2563.345215,596.760437 
	C2564.461182,596.586304 2565.719727,596.217529 2566.977783,596.218689 
	C2596.289307,596.246094 2625.600586,596.299561 2654.912109,596.400269 
	C2657.233398,596.408264 2659.553711,596.795105 2662.777100,597.133545 
z"/>
</svg>